<svg width="34" height="14" viewBox="0 0 34 14" fill="none" xmlns="http://www.w3.org/2000/svg">
<path opacity="0.7" d="M1.2403 13C1.1203 13 1.0183 12.958 0.934297 12.874C0.850297 12.79 0.808297 12.688 0.808297 12.568V0.85C0.808297 0.717999 0.844297 0.609999 0.916297 0.526C1.0003 0.441999 1.1083 0.399999 1.2403 0.399999H6.4603C7.8643 0.399999 8.9143 0.711999 9.6103 1.336C10.3063 1.948 10.6543 2.788 10.6543 3.856C10.6543 4.48 10.4983 5.014 10.1863 5.458C9.8863 5.89 9.5323 6.202 9.1243 6.394C9.6283 6.622 10.0543 6.994 10.4023 7.51C10.7503 8.026 10.9243 8.614 10.9243 9.274C10.9243 10.39 10.5463 11.29 9.7903 11.974C9.0343 12.658 7.9783 13 6.6223 13H1.2403ZM6.1363 5.566C6.7483 5.566 7.2163 5.416 7.5403 5.116C7.8763 4.816 8.0443 4.414 8.0443 3.91C8.0443 3.406 7.8823 3.016 7.5583 2.74C7.2343 2.464 6.7603 2.326 6.1363 2.326H3.3463V5.566H6.1363ZM6.3163 11.074C6.9403 11.074 7.4263 10.906 7.7743 10.57C8.1223 10.222 8.2963 9.784 8.2963 9.256C8.2963 8.728 8.1163 8.296 7.7563 7.96C7.4083 7.612 6.9283 7.438 6.3163 7.438H3.3463V11.074H6.3163ZM16.1939 13C16.0739 13 15.9719 12.958 15.8879 12.874C15.8039 12.79 15.7619 12.688 15.7619 12.568V2.65H12.4319C12.3119 2.65 12.2099 2.608 12.1259 2.524C12.0419 2.44 11.9999 2.332 11.9999 2.2V0.85C11.9999 0.717999 12.0359 0.609999 12.1079 0.526C12.1919 0.441999 12.2999 0.399999 12.4319 0.399999H21.6299C21.7619 0.399999 21.8699 0.441999 21.9539 0.526C22.0379 0.609999 22.0799 0.717999 22.0799 0.85V2.2C22.0799 2.332 22.0379 2.44 21.9539 2.524C21.8699 2.608 21.7619 2.65 21.6299 2.65H18.3179V12.568C18.3179 12.688 18.2759 12.79 18.1919 12.874C18.1199 12.958 18.0179 13 17.8859 13H16.1939ZM28.5374 13.18C26.8814 13.18 25.5974 12.76 24.6854 11.92C23.7854 11.068 23.3054 9.862 23.2454 8.302C23.2334 7.978 23.2274 7.45 23.2274 6.718C23.2274 5.974 23.2334 5.434 23.2454 5.098C23.3054 3.562 23.7914 2.368 24.7034 1.516C25.6154 0.651999 26.8934 0.219999 28.5374 0.219999C29.6054 0.219999 30.5354 0.405999 31.3274 0.778C32.1194 1.138 32.7314 1.636 33.1634 2.272C33.6074 2.908 33.8414 3.622 33.8654 4.414V4.45C33.8654 4.546 33.8234 4.63 33.7394 4.702C33.6674 4.762 33.5834 4.792 33.4874 4.792H31.7414C31.5974 4.792 31.4894 4.762 31.4174 4.702C31.3454 4.63 31.2854 4.51 31.2374 4.342C31.0574 3.598 30.7454 3.076 30.3014 2.776C29.8574 2.464 29.2694 2.308 28.5374 2.308C26.8214 2.308 25.9274 3.268 25.8554 5.188C25.8434 5.512 25.8374 6.01 25.8374 6.682C25.8374 7.354 25.8434 7.864 25.8554 8.212C25.9274 10.132 26.8214 11.092 28.5374 11.092C29.2574 11.092 29.8394 10.942 30.2834 10.642C30.7394 10.33 31.0574 9.802 31.2374 9.058C31.2854 8.89 31.3454 8.776 31.4174 8.716C31.4894 8.644 31.5974 8.608 31.7414 8.608H33.4874C33.5954 8.608 33.6854 8.644 33.7574 8.716C33.8414 8.788 33.8774 8.878 33.8654 8.986C33.8414 9.778 33.6074 10.492 33.1634 11.128C32.7314 11.764 32.1194 12.268 31.3274 12.64C30.5354 13 29.6054 13.18 28.5374 13.18Z" fill="white"/>
</svg>
