<svg width="109" height="47" viewBox="0 0 109 47" fill="none" xmlns="http://www.w3.org/2000/svg">
<path d="M57.4091 43.0001H61.6136C64.3636 43.0001 65.5 41.6592 65.5 39.9092C65.5 38.0683 64.2273 37.0683 63.1591 37.0001V36.8865C64.1591 36.6138 65.0455 35.9547 65.0455 34.4547C65.0455 32.7501 63.9091 31.3638 61.4773 31.3638H57.4091V43.0001ZM58.8182 41.7501V37.7047H61.6818C63.2045 37.7047 64.1591 38.7274 64.1591 39.9092C64.1591 40.9319 63.4545 41.7501 61.6136 41.7501H58.8182ZM58.8182 36.4774V32.6138H61.4773C63.0227 32.6138 63.7045 33.4319 63.7045 34.4547C63.7045 35.6819 62.7045 36.4774 61.4318 36.4774H58.8182ZM67.7935 43.0001H69.1344V34.2728H67.7935V43.0001ZM68.4753 32.8183C68.9981 32.8183 69.4299 32.4092 69.4299 31.9092C69.4299 31.4092 68.9981 31.0001 68.4753 31.0001C67.9526 31.0001 67.5208 31.4092 67.5208 31.9092C67.5208 32.4092 67.9526 32.8183 68.4753 32.8183ZM75.5459 34.2728H73.6822V32.1819H72.3413V34.2728H71.0231V35.4092H72.3413V40.8638C72.3413 42.3865 73.5686 43.1138 74.7049 43.1138C75.2049 43.1138 75.5231 43.0228 75.7049 42.9547L75.4322 41.7501C75.3186 41.7728 75.1368 41.8183 74.8413 41.8183C74.2504 41.8183 73.6822 41.6365 73.6822 40.5001V35.4092H75.5459V34.2728ZM81.1746 43.1819C83.1064 43.1819 84.3791 42.0001 84.6064 40.4547H83.2655C83.0155 41.4092 82.2201 41.9774 81.1746 41.9774C79.5837 41.9774 78.561 40.6592 78.561 38.6365C78.561 36.6592 79.6064 35.3638 81.1746 35.3638C82.3564 35.3638 83.061 36.091 83.2655 36.8865H84.6064C84.3791 35.2501 82.9928 34.1592 81.1519 34.1592C78.7882 34.1592 77.2201 36.0228 77.2201 38.6819C77.2201 41.2956 78.7201 43.1819 81.1746 43.1819ZM90.2721 43.1819C92.6357 43.1819 94.2266 41.3865 94.2266 38.6819C94.2266 35.9547 92.6357 34.1592 90.2721 34.1592C87.9085 34.1592 86.3176 35.9547 86.3176 38.6819C86.3176 41.3865 87.9085 43.1819 90.2721 43.1819ZM90.2721 41.9774C88.4766 41.9774 87.6585 40.4319 87.6585 38.6819C87.6585 36.9319 88.4766 35.3638 90.2721 35.3638C92.0676 35.3638 92.8857 36.9319 92.8857 38.6819C92.8857 40.4319 92.0676 41.9774 90.2721 41.9774ZM96.4335 43.0001H97.7744V34.2728H96.4335V43.0001ZM97.1153 32.8183C97.6381 32.8183 98.0699 32.4092 98.0699 31.9092C98.0699 31.4092 97.6381 31.0001 97.1153 31.0001C96.5926 31.0001 96.1608 31.4092 96.1608 31.9092C96.1608 32.4092 96.5926 32.8183 97.1153 32.8183ZM101.731 37.7501C101.731 36.2274 102.674 35.3638 103.959 35.3638C105.203 35.3638 105.959 36.1763 105.959 37.5456V43.0001H107.299V37.4547C107.299 35.2274 106.112 34.1592 104.345 34.1592C103.027 34.1592 102.209 34.7501 101.799 35.6365H101.686V34.2728H100.39V43.0001H101.731V37.7501Z" fill="#F2F2F2"/>
<path d="M57.2642 19.0001H63.4787C66.7457 19.0001 68.4858 17.2956 68.4858 14.9802C68.4858 12.8282 66.9446 11.5285 65.2898 11.4504V11.3084C66.8026 10.9675 67.9176 9.89501 67.9176 8.18336C67.9176 6.00296 66.2983 4.45467 63.0881 4.45467H57.2642V19.0001ZM60.3395 16.4859V12.6223H62.9176C64.3949 12.6223 65.3111 13.4746 65.3111 14.6748C65.3111 15.7686 64.5653 16.4859 62.8466 16.4859H60.3395ZM60.3395 10.5413V6.94046H62.6761C64.0398 6.94046 64.8139 7.64359 64.8139 8.69472C64.8139 9.84529 63.8764 10.5413 62.6193 10.5413H60.3395ZM69.9329 6.99018H74.386V19.0001H77.4258V6.99018H81.8789V4.45467H69.9329V6.99018ZM96.0355 9.547C95.6307 6.18762 93.0881 4.2558 89.7216 4.2558C85.8793 4.2558 82.946 6.96887 82.946 11.7274C82.946 16.4717 85.8295 19.199 89.7216 19.199C93.4503 19.199 95.7017 16.7203 96.0355 14.0427L92.9247 14.0285C92.6335 15.5839 91.4119 16.4788 89.7713 16.4788C87.5625 16.4788 86.0639 14.8382 86.0639 11.7274C86.0639 8.70183 87.5412 6.97597 89.7926 6.97597C91.4759 6.97597 92.6903 7.94899 92.9247 9.547H96.0355Z" fill="white"/>
<circle cx="20" cy="23.0001" r="20" fill="#C4C4C4"/>
<g clip-path="url(#clip0_1_149)">
<path d="M39.4018 27.8368C36.7296 38.5568 25.8686 45.0734 15.1639 42.401C4.44355 39.7288 -2.07301 28.8682 0.599335 18.1637C3.27152 7.44366 14.1168 0.927098 24.8371 3.59944C35.5418 6.25601 42.0742 17.1166 39.4018 27.8368Z" fill="url(#paint0_linear_1_149)"/>
<path d="M29.5223 20.5081C29.9129 17.8518 27.8973 16.4143 25.116 15.4612L26.0223 11.8518L23.8348 11.3049L22.9598 14.8206C22.3817 14.6799 21.7879 14.5393 21.1942 14.4143L22.0692 10.8831L19.8817 10.3362L18.991 13.9299C18.5067 13.8206 18.0379 13.7112 17.5848 13.6018V13.5862L14.5535 12.8362L13.9754 15.1799C13.9754 15.1799 15.6004 15.5549 15.5692 15.5706C16.4598 15.7893 16.616 16.3831 16.5848 16.8518L15.5535 20.9612C15.616 20.9768 15.6942 20.9924 15.7879 21.0393C15.7098 21.0237 15.6317 21.0081 15.5535 20.9768L14.1161 26.7268C14.0067 26.9924 13.7254 27.3987 13.1161 27.2424C13.1317 27.2737 11.5223 26.8518 11.5223 26.8518L10.4286 29.3674L13.2879 30.0862C13.8192 30.2268 14.3348 30.3518 14.8504 30.4924L13.9442 34.1331L16.1317 34.6799L17.0379 31.0706C17.6317 31.2268 18.2254 31.3831 18.7879 31.5237L17.8973 35.1174L20.0848 35.6643L20.991 32.0237C24.741 32.7268 27.5535 32.4456 28.7254 29.0549C29.6785 26.3362 28.6785 24.7581 26.7098 23.7268C28.1629 23.3987 29.241 22.4456 29.5223 20.5081ZM24.5067 27.5393C23.8348 30.2581 19.241 28.7893 17.7567 28.4143L18.9598 23.5862C20.4442 23.9612 25.2254 24.6956 24.5067 27.5393ZM25.1942 20.4612C24.5692 22.9456 20.7567 21.6799 19.5223 21.3674L20.6161 16.9924C21.8504 17.3049 25.8348 17.8831 25.1942 20.4612Z" fill="white"/>
</g>
<defs>
<linearGradient id="paint0_linear_1_149" x1="19.9893" y1="2.99064" x2="19.9893" y2="42.9962" gradientUnits="userSpaceOnUse">
<stop stop-color="#F9AA4B"/>
<stop offset="1" stop-color="#F7931A"/>
</linearGradient>
<clipPath id="clip0_1_149">
<rect width="40" height="40" fill="white" transform="translate(0 3.00012)"/>
</clipPath>
</defs>
</svg>
