<svg width="130" height="47" viewBox="0 0 130 47" fill="none" xmlns="http://www.w3.org/2000/svg">
<path d="M57.409 43.0001H64.5227V41.7501H58.8181V37.7956H64.0681V36.5456H58.8181V32.6138H64.4318V31.3638H57.409V43.0001ZM70.7452 34.2728H68.8815V32.1819H67.5406V34.2728H66.2224V35.4092H67.5406V40.8638C67.5406 42.3865 68.7679 43.1138 69.9043 43.1138C70.4043 43.1138 70.7224 43.0228 70.9043 42.9547L70.6315 41.7501C70.5179 41.7728 70.3361 41.8183 70.0406 41.8183C69.4497 41.8183 68.8815 41.6365 68.8815 40.5001V35.4092H70.7452V34.2728ZM74.4506 37.7501C74.4506 36.2274 75.4222 35.3638 76.7461 35.3638C78.0074 35.3638 78.7688 36.1592 78.7688 37.5456V43.0001H80.1097V37.4547C80.1097 35.2103 78.9165 34.1592 77.1324 34.1592C75.7574 34.1592 74.9733 34.7331 74.5643 35.6365H74.4506V31.3638H73.1097V43.0001H74.4506V37.7501ZM86.3819 43.1819C88.1547 43.1819 89.4501 42.2956 89.8592 40.9774L88.5637 40.6138C88.2228 41.5228 87.4331 41.9774 86.3819 41.9774C84.8081 41.9774 83.7228 40.9603 83.6603 39.091H89.9956V38.5228C89.9956 35.2728 88.0637 34.1592 86.2456 34.1592C83.8819 34.1592 82.3137 36.0228 82.3137 38.7047C82.3137 41.3865 83.8592 43.1819 86.3819 43.1819ZM83.6603 37.9319C83.7512 36.574 84.7115 35.3638 86.2456 35.3638C87.7001 35.3638 88.6319 36.4547 88.6319 37.9319H83.6603ZM92.1953 43.0001H93.5362V37.4774C93.5362 36.2956 94.4681 35.4319 95.7408 35.4319C96.0987 35.4319 96.4681 35.5001 96.559 35.5228V34.1592C96.4056 34.1478 96.0533 34.1365 95.8544 34.1365C94.809 34.1365 93.8999 34.7274 93.5817 35.591H93.4908V34.2728H92.1953V43.0001ZM101.702 43.1819C103.475 43.1819 104.77 42.2956 105.179 40.9774L103.884 40.6138C103.543 41.5228 102.753 41.9774 101.702 41.9774C100.128 41.9774 99.0428 40.9603 98.9803 39.091H105.316V38.5228C105.316 35.2728 103.384 34.1592 101.566 34.1592C99.2019 34.1592 97.6337 36.0228 97.6337 38.7047C97.6337 41.3865 99.1792 43.1819 101.702 43.1819ZM98.9803 37.9319C99.0712 36.574 100.031 35.3638 101.566 35.3638C103.02 35.3638 103.952 36.4547 103.952 37.9319H98.9803ZM113.015 39.4319C113.015 41.0683 111.765 41.8183 110.765 41.8183C109.652 41.8183 108.856 41.0001 108.856 39.7274V34.2728H107.515V39.8183C107.515 42.0456 108.697 43.1138 110.334 43.1138C111.652 43.1138 112.515 42.4092 112.924 41.5228H113.015V43.0001H114.356V34.2728H113.015V39.4319ZM116.972 43.0001H118.313V37.5456C118.313 36.2672 119.245 35.3638 120.29 35.3638C121.307 35.3638 122.018 36.0285 122.018 37.0228V43.0001H123.381V37.3183C123.381 36.1933 124.086 35.3638 125.313 35.3638C126.268 35.3638 127.086 35.8694 127.086 37.1592V43.0001H128.427V37.1592C128.427 35.1081 127.324 34.1592 125.768 34.1592C124.518 34.1592 123.603 34.7331 123.154 35.6365H123.063C122.631 34.7047 121.87 34.1592 120.722 34.1592C119.586 34.1592 118.745 34.7047 118.381 35.6365H118.268V34.2728H116.972V43.0001Z" fill="#F2F2F2"/>
<path d="M57.2641 19.0001H67.0937V16.4646H60.3394V12.9916H66.561V10.4561H60.3394V6.99018H67.0653V4.45467H57.2641V19.0001ZM68.9563 6.99018H73.4094V19.0001H76.4492V6.99018H80.9023V4.45467H68.9563V6.99018ZM82.8696 19.0001H85.9449V12.9916H92.1878V19.0001H95.256V4.45467H92.1878V10.4561H85.9449V4.45467H82.8696V19.0001Z" fill="white"/>
<path d="M39.8914 24C39.8914 34.9875 30.9845 43.8947 19.997 43.8947C9.00949 43.8947 0.102421 34.9875 0.102421 24C0.102421 13.0125 9.00949 4.10547 19.997 4.10547C30.9844 4.10547 39.8914 13.0125 39.8914 24Z" fill="#6374C3"/>
<path d="M19.9331 14.769L19.8102 15.1867V27.3064L19.9331 27.4291L25.5589 24.1037L19.9331 14.769Z" fill="white"/>
<path d="M19.9331 14.769L14.3073 24.1037L19.9331 27.4291V21.5466V14.769Z" fill="white"/>
<path d="M19.9326 29.259L19.8633 29.3435V33.6608L19.9326 33.863L25.5618 25.9353L19.9326 29.259Z" fill="white"/>
<path d="M19.9331 33.863V29.259L14.3073 25.9353L19.9331 33.863Z" fill="white"/>
<path d="M19.9334 27.4301L25.5591 24.1047L19.9334 21.5476V27.4301Z" fill="white"/>
<path d="M14.3073 24.1047L19.933 27.4301V21.5476L14.3073 24.1047Z" fill="white"/>
</svg>
