<svg width="117" height="47" viewBox="0 0 117 47" fill="none" xmlns="http://www.w3.org/2000/svg">
<path d="M57.4091 43.0005H64.2273V41.7505H58.8182V31.3641H57.4091V43.0005ZM66.3873 43.0005H67.7282V34.2732H66.3873V43.0005ZM67.0691 32.8187C67.5918 32.8187 68.0236 32.4096 68.0236 31.9096C68.0236 31.4096 67.5918 31.0005 67.0691 31.0005C66.5464 31.0005 66.1145 31.4096 66.1145 31.9096C66.1145 32.4096 66.5464 32.8187 67.0691 32.8187ZM74.1396 34.2732H72.276V32.1823H70.9351V34.2732H69.6169V35.4096H70.9351V40.8641C70.9351 42.3869 72.1623 43.1141 73.2987 43.1141C73.7987 43.1141 74.1169 43.0232 74.2987 42.955L74.026 41.7505C73.9123 41.7732 73.7305 41.8187 73.4351 41.8187C72.8441 41.8187 72.276 41.6369 72.276 40.5005V35.4096H74.1396V34.2732ZM79.882 43.1823C81.6547 43.1823 82.9502 42.2959 83.3593 40.9778L82.0638 40.6141C81.7229 41.5232 80.9331 41.9778 79.882 41.9778C78.3081 41.9778 77.2229 40.9607 77.1604 39.0914H83.4956V38.5232C83.4956 35.2732 81.5638 34.1596 79.7456 34.1596C77.382 34.1596 75.8138 36.0232 75.8138 38.705C75.8138 41.3869 77.3593 43.1823 79.882 43.1823ZM77.1604 37.9323C77.2513 36.5744 78.2115 35.3641 79.7456 35.3641C81.2002 35.3641 82.132 36.455 82.132 37.9323H77.1604ZM89.2409 43.1823C91.1727 43.1823 92.4454 42.0005 92.6727 40.455H91.3318C91.0818 41.4096 90.2863 41.9778 89.2409 41.9778C87.6499 41.9778 86.6272 40.6596 86.6272 38.6369C86.6272 36.6596 87.6727 35.3641 89.2409 35.3641C90.4227 35.3641 91.1272 36.0914 91.3318 36.8869H92.6727C92.4454 35.2505 91.059 34.1596 89.2181 34.1596C86.8545 34.1596 85.2863 36.0232 85.2863 38.6823C85.2863 41.2959 86.7863 43.1823 89.2409 43.1823ZM98.3384 43.1823C100.702 43.1823 102.293 41.3869 102.293 38.6823C102.293 35.955 100.702 34.1596 98.3384 34.1596C95.9747 34.1596 94.3838 35.955 94.3838 38.6823C94.3838 41.3869 95.9747 43.1823 98.3384 43.1823ZM98.3384 41.9778C96.5429 41.9778 95.7247 40.4323 95.7247 38.6823C95.7247 36.9323 96.5429 35.3641 98.3384 35.3641C100.134 35.3641 100.952 36.9323 100.952 38.6823C100.952 40.4323 100.134 41.9778 98.3384 41.9778ZM104.5 43.0005H105.841V34.2732H104.5V43.0005ZM105.182 32.8187C105.704 32.8187 106.136 32.4096 106.136 31.9096C106.136 31.4096 105.704 31.0005 105.182 31.0005C104.659 31.0005 104.227 31.4096 104.227 31.9096C104.227 32.4096 104.659 32.8187 105.182 32.8187ZM109.798 37.7505C109.798 36.2278 110.741 35.3641 112.025 35.3641C113.269 35.3641 114.025 36.1766 114.025 37.5459V43.0005H115.366V37.455C115.366 35.2278 114.178 34.1596 112.411 34.1596C111.093 34.1596 110.275 34.7505 109.866 35.6369H109.752V34.2732H108.457V43.0005H109.798V37.7505Z" fill="#F2F2F2"/>
<path d="M57.2642 19.0005H66.5753V16.465H60.3395V4.45503H57.2642V19.0005ZM66.2415 6.99054H70.6946V19.0005H73.7344V6.99054H78.1875V4.45503H66.2415V6.99054ZM92.3441 9.54736C91.9393 6.18799 89.3967 4.25617 86.0302 4.25617C82.1879 4.25617 79.2546 6.96924 79.2546 11.7278C79.2546 16.4721 82.1381 19.1994 86.0302 19.1994C89.7589 19.1994 92.0103 16.7207 92.3441 14.0431L89.2333 14.0289C88.9421 15.5843 87.7205 16.4792 86.0799 16.4792C83.8711 16.4792 82.3725 14.8386 82.3725 11.7278C82.3725 8.70219 83.8498 6.97634 86.1012 6.97634C87.7844 6.97634 88.9989 7.94935 89.2333 9.54736H92.3441Z" fill="white"/>
<path d="M39.8914 24.0006C39.8914 34.9881 30.9844 43.8953 19.997 43.8953C9.00944 43.8953 0.102367 34.9881 0.102367 24.0006C0.102367 13.0131 9.00944 4.10608 19.997 4.10608C30.9843 4.10608 39.8914 13.0131 39.8914 24.0006Z" fill="#59C19C"/>
<path d="M19.3014 27.3479L20.1939 23.9872L22.3069 23.2152L22.8325 21.2402L22.8146 21.1912L20.7346 21.9511L22.2332 16.3081H17.9831L16.0232 23.6723L14.3868 24.2701L13.8462 26.3062L15.4812 25.7089L14.3262 30.049H25.6375L26.3627 27.3479H19.3014Z" fill="white"/>
</svg>
